<?xml version="1.0" standalone="no"?>
<!DOCTYPE svg PUBLIC "-//W3C//DTD SVG 20010904//EN"
 "http://www.w3.org/TR/2001/REC-SVG-20010904/DTD/svg10.dtd">
<svg version="1.0" xmlns="http://www.w3.org/2000/svg"
 width="900.000000pt" height="900.000000pt" viewBox="0 0 900.000000 900.000000"
 preserveAspectRatio="xMidYMid meet">
<metadata>
Created by potrace 1.10, written by Peter Selinger 2001-2011
</metadata>
<g transform="translate(0.000000,900.000000) scale(0.100000,-0.100000)"
fill="#1661d6" stroke="none">
<path d="M1825 7413 c-107 -43 -188 -119 -241 -223 -24 -48 -29 -70 -34 -175
-3 -66 -5 -1031 -4 -2145 l1 -2025 22 -55 c50 -123 147 -216 270 -257 61 -21
633 -32 657 -13 12 11 14 185 14 1275 0 1210 1 1263 18 1278 26 24 75 21 98
-4 19 -21 19 -63 21 -1613 1 -875 4 -1617 7 -1648 10 -97 73 -188 164 -236
l43 -22 2125 0 c2302 0 2124 -4 2233 49 45 21 141 117 162 162 53 109 49 -69
49 2233 l0 2125 -22 43 c-43 82 -125 146 -213 163 -22 5 -966 9 -2097 10
l-2057 1 -26 24 c-31 29 -32 60 -2 88 l23 22 1706 0 c1476 0 1707 2 1718 14 9
11 11 90 7 313 -4 310 -7 331 -53 423 -27 53 -122 141 -189 175 l-60 30 -2150
2 c-1960 2 -2154 1 -2190 -14z m464 -704 c17 -6 37 -21 43 -33 36 -69 261
-387 310 -437 7 -8 44 -50 82 -94 185 -217 576 -581 826 -770 36 -27 67 -52
70 -55 13 -13 267 -197 372 -268 106 -72 344 -224 368 -236 8 -4 24 -12 35
-19 89 -53 115 -67 128 -67 13 0 54 56 92 125 28 50 156 262 167 276 17 21 52
39 77 39 35 0 77 -47 101 -112 13 -35 26 -67 30 -73 4 -5 10 -21 13 -35 3 -14
15 -50 27 -80 40 -102 81 -215 92 -250 5 -19 14 -39 19 -44 5 -6 9 -16 9 -22
0 -7 5 -25 12 -41 6 -15 23 -62 38 -103 42 -114 77 -209 100 -270 12 -30 26
-71 32 -90 5 -19 14 -39 19 -44 5 -6 9 -16 9 -22 0 -7 5 -25 12 -41 28 -70 47
-130 48 -151 0 -32 -24 -76 -52 -94 -25 -16 -164 -42 -508 -93 -203 -31 -305
-47 -590 -91 -52 -8 -132 -22 -177 -29 -105 -19 -139 -19 -173 2 -40 23 -53
56 -40 103 6 21 60 122 120 223 61 102 110 191 110 200 0 8 -73 71 -162 138
-89 68 -168 131 -177 139 -9 9 -79 70 -155 135 -212 182 -514 486 -686 690
-23 28 -53 64 -67 80 -39 46 -203 263 -203 270 0 3 -16 28 -36 57 -106 150
-278 472 -299 561 -4 15 -11 30 -16 33 -5 3 -9 12 -9 21 0 8 -6 29 -13 46 -15
34 -36 106 -61 203 -18 74 -31 229 -22 276 4 22 15 39 29 46 12 6 22 11 23 11
1 1 15 -4 33 -10z"/>
<path d="M2400 6298 c0 -19 41 -138 72 -208 67 -151 129 -269 216 -407 23 -37
48 -77 55 -88 6 -11 30 -44 52 -75 23 -30 48 -66 57 -80 17 -27 119 -157 195
-248 229 -275 667 -692 938 -894 145 -108 264 -211 275 -238 16 -38 4 -80 -41
-148 -16 -24 -29 -45 -29 -47 0 -2 -27 -49 -60 -103 -33 -55 -60 -107 -60
-116 0 -19 26 -20 97 -6 26 5 98 16 158 25 113 16 241 35 400 60 50 8 135 21
190 29 369 55 358 53 352 74 -9 29 -67 186 -76 207 -5 11 -23 61 -41 110 -17
50 -38 107 -46 128 -8 20 -20 54 -28 75 -26 71 -48 127 -62 160 -8 18 -14 38
-14 45 0 7 -13 44 -28 82 -16 39 -38 97 -50 130 -42 119 -61 167 -73 181 -10
12 -23 -5 -77 -93 -35 -60 -67 -115 -70 -123 -12 -30 -66 -105 -91 -127 -18
-15 -39 -22 -69 -23 -49 0 -101 25 -300 145 -46 28 -91 55 -100 60 -9 6 -45
29 -80 53 -35 23 -67 42 -72 42 -5 0 -10 3 -12 8 -1 4 -34 28 -73 54 -232 155
-422 298 -665 502 -148 125 -162 138 -380 356 -181 180 -294 305 -380 419 -53
71 -79 97 -80 79z"/>
</g>
</svg>
