<?xml version="1.0" standalone="no"?>
<!DOCTYPE svg PUBLIC "-//W3C//DTD SVG 20010904//EN"
 "http://www.w3.org/TR/2001/REC-SVG-20010904/DTD/svg10.dtd">
<svg version="1.0" xmlns="http://www.w3.org/2000/svg"
 width="900.000000pt" height="900.000000pt" viewBox="0 0 900.000000 900.000000"
 preserveAspectRatio="xMidYMid meet">
<metadata>
Created by potrace 1.10, written by Peter Selinger 2001-2011
</metadata>
<g transform="translate(0.000000,900.000000) scale(0.100000,-0.100000)"
fill="#cf0f0f" stroke="none">
<path d="M3763 7429 c-69 -34 -111 -76 -147 -147 -25 -50 -28 -79 -27 -234 l1
-88 900 0 900 0 0 135 c0 118 -3 141 -21 178 -38 75 -85 124 -152 156 l-64 31
-664 0 -664 0 -62 -31z"/>
<path d="M2595 6823 c-185 -26 -290 -159 -284 -359 4 -176 42 -263 141 -327
78 -49 -27 -47 2038 -47 1686 0 1930 2 1968 15 110 39 176 113 202 227 19 84
0 284 -32 336 -38 63 -94 109 -168 139 -43 17 -135 18 -1940 19 -1042 1 -1908
-1 -1925 -3z"/>
<path d="M2623 5938 c-14 -22 -11 -3920 2 -4008 28 -176 126 -301 300 -382
l50 -23 1495 -3 c1482 -2 1495 -2 1556 18 83 28 176 90 223 150 51 65 96 162
105 225 8 62 8 3998 0 4019 -6 15 -181 16 -1864 16 -1476 0 -1860 -3 -1867
-12z m740 -690 c16 -19 17 -99 17 -1373 0 -744 -3 -1361 -6 -1370 -9 -23 -57
-45 -83 -38 -53 14 -51 -45 -51 1403 0 1167 2 1345 15 1370 23 44 73 48 108 8z
m760 23 c13 -5 27 -17 31 -26 5 -15 6 -388 6 -2372 0 -412 1 -403 -65 -403
-70 0 -65 -105 -65 1403 l0 1358 25 24 c27 28 33 29 68 16z m802 -16 l25 -24
0 -1361 c0 -1347 0 -1360 -20 -1380 -23 -23 -68 -26 -94 -7 -17 12 -18 80 -18
1384 0 755 3 1377 7 1383 8 12 42 28 63 29 7 1 24 -10 37 -24z m776 15 c4 0
15 -13 24 -30 13 -26 15 -188 15 -1370 0 -1503 5 -1400 -70 -1400 -76 0 -70
-117 -70 1406 0 1284 1 1362 18 1376 22 20 44 28 60 22 8 -2 18 -4 23 -4z"/>
</g>
</svg>
